HIERARCHY
ROOT Hips
{
	OFFSET 0.000000 0.000000 0.000000
	CHANNELS 6 Xposition Yposition Zposition Zrotation Yrotation Xrotation 
	JOINT LHipJoint
	{
		OFFSET 0.000000 0.000000 0.000000
		CHANNELS 3 Zrotation Yrotation Xrotation
		JOINT LeftUpLeg
		{
			OFFSET 1.363060 -1.794630 0.839290
			CHANNELS 3 Zrotation Yrotation Xrotation
			JOINT LeftLeg
			{
				OFFSET 2.448110 -6.726130 0.000000
				CHANNELS 3 Zrotation Yrotation Xrotation
				JOINT LeftFoot
				{
					OFFSET 2.562200 -7.039590 0.000000
					CHANNELS 3 Zrotation Yrotation Xrotation
					JOINT LeftToeBase
					{
						OFFSET 0.157640 -0.433110 2.322550
						CHANNELS 3 Zrotation Yrotation Xrotation
						End Site
						{
							OFFSET 0.000000 0.000000 0.000000
						}
					}
				}
			}
		}
	}
	JOINT RHipJoint
	{
		OFFSET 0.000000 0.000000 0.000000
		CHANNELS 3 Zrotation Yrotation Xrotation
		JOINT RightUpLeg
		{
			OFFSET -1.305520 -1.794630 0.839290
			CHANNELS 3 Zrotation Yrotation Xrotation
			JOINT RightLeg
			{
				OFFSET -2.542530 -6.985550 0.000000
				CHANNELS 3 Zrotation Yrotation Xrotation
				JOINT RightFoot
				{
					OFFSET -2.568260 -7.056230 0.000000
					CHANNELS 3 Zrotation Yrotation Xrotation
					JOINT RightToeBase
					{
						OFFSET -0.164730 -0.452590 2.363150
						CHANNELS 3 Zrotation Yrotation Xrotation
						End Site
						{
							OFFSET 0.000000 0.000000 0.000000
						}
					}
				}
			}
		}
	}
	JOINT LowerBack
	{
		OFFSET 0.000000 0.000000 0.000000
		CHANNELS 3 Zrotation Yrotation Xrotation
		JOINT Spine
		{
			OFFSET 0.028270 2.035590 -0.193380
			CHANNELS 3 Zrotation Yrotation Xrotation
			JOINT Spine1
			{
				OFFSET 0.056720 2.048850 -0.042750
				CHANNELS 3 Zrotation Yrotation Xrotation
				JOINT Neck
				{
					OFFSET 0.000000 0.000000 0.000000
					CHANNELS 3 Zrotation Yrotation Xrotation
					JOINT Neck1
					{
						OFFSET -0.054170 1.746240 0.172020
						CHANNELS 3 Zrotation Yrotation Xrotation
						JOINT Head
						{
							OFFSET 0.104070 1.761360 -0.123970
							CHANNELS 3 Zrotation Yrotation Xrotation
							End Site
							{
								OFFSET 0.000000 0.000000 0.000000
							}
						}
					}
				}
				JOINT LeftShoulder
				{
					OFFSET 0.000000 0.000000 0.000000
					CHANNELS 3 Zrotation Yrotation Xrotation
					JOINT LeftArm
					{
						OFFSET 3.362410 1.200890 -0.311210
						CHANNELS 3 Zrotation Yrotation Xrotation
						JOINT LeftForeArm
						{
							OFFSET 4.983000 -0.000000 -0.000000
							CHANNELS 3 Zrotation Yrotation Xrotation
							JOINT LeftHand
							{
								OFFSET 3.483560 -0.000000 -0.000000
								CHANNELS 3 Zrotation Yrotation Xrotation
								JOINT LeftFingerBase
								{
									OFFSET 0.000000 0.000000 0.000000
									CHANNELS 3 Zrotation Yrotation Xrotation
									JOINT LeftHandIndex1
									{
										OFFSET 0.715260 -0.000000 -0.000000
										CHANNELS 3 Zrotation Yrotation Xrotation
										End Site
										{
											OFFSET 0.000000 0.000000 0.000000
										}
									}
								}
								JOINT LThumb
								{
									OFFSET 0.000000 0.000000 0.000000
									CHANNELS 3 Zrotation Yrotation Xrotation
									End Site
									{
										OFFSET 0.000000 0.000000 0.000000
									}
								}
							}
						}
					}
				}
				JOINT RightShoulder
				{
					OFFSET 0.000000 0.000000 0.000000
					CHANNELS 3 Zrotation Yrotation Xrotation
					JOINT RightArm
					{
						OFFSET -3.136600 1.374050 -0.404650
						CHANNELS 3 Zrotation Yrotation Xrotation
						JOINT RightForeArm
						{
							OFFSET -5.241900 -0.000000 -0.000000
							CHANNELS 3 Zrotation Yrotation Xrotation
							JOINT RightHand
							{
								OFFSET -3.444170 -0.000000 -0.000000
								CHANNELS 3 Zrotation Yrotation Xrotation
								JOINT RightFingerBase
								{
									OFFSET 0.000000 0.000000 0.000000
									CHANNELS 3 Zrotation Yrotation Xrotation
									JOINT RightHandIndex1
									{
										OFFSET -0.622530 -0.000000 -0.000000
										CHANNELS 3 Zrotation Yrotation Xrotation
										End Site
										{
											OFFSET 0.000000 0.000000 0.000000
										}
									}
								}
								JOINT RThumb
								{
									OFFSET 0.000000 0.000000 0.000000
									CHANNELS 3 Zrotation Yrotation Xrotation
									End Site
									{
										OFFSET 0.000000 0.000000 0.000000
									}
								}
							}
						}
					}
				}
			}
		}
	}
}
MOTION
Frames: 11
Frame Time: 0.008333
-8.907301 16.740485 0.518309 -75.973207 85.879487 -66.424301 7.344472 0.629555 -0.783878 -19.962245 -4.811856 -11.738357 8.223528 17.887726 57.581771 -0.240689 3.005964 7.609614 1.037900 -6.479400 -18.182000 -8.960254 -0.071320 -2.552188 37.010482 -1.992762 -10.744516 -8.560006 -18.574957 56.770223 3.510031 -17.934677 -1.779506 -1.963500 8.789600 -25.139200 2.459477 0.265591 22.180517 2.419949 1.829817 2.070583 -3.240034 0.863147 2.589292 6.508215 6.011156 -0.245371 1.265460 6.442306 -0.720267 -5.570700 2.389200 -1.865000 17.483066 -0.252835 2.876739 -60.473596 -37.273584 8.094564 139.067452 -51.451643 -102.840175 0.064161 -2.321517 -34.407529 37.996911 9.930053 9.802900 -7.125000 0.000000 0.000000 11.331900 45.266000 0.075400 -16.945069 -2.100117 3.980614 42.625358 38.490792 15.198607 -106.867822 60.170293 -81.862751 -0.726557 2.140433 -46.836027 -22.882991 -0.010888 0.959600 7.125000 0.000000 0.000000 2.110200 -32.337500 0.654600 
-8.085667 17.127318 0.575362 -75.147685 85.471986 -68.555307 7.098806 1.243633 -0.547498 -18.813083 -1.349112 -6.823462 7.473710 16.596622 54.290301 -0.116883 4.342142 15.542288 0.601800 -4.965700 -13.810800 -8.913297 -0.176967 -2.856999 37.063171 -3.875985 -5.223960 -8.030834 -17.759763 54.057256 4.086155 -22.245860 5.539724 -1.675200 8.154000 -23.182800 2.215513 0.191733 21.604149 2.521262 1.711736 2.110135 -2.675844 0.708731 3.104079 6.456000 5.645807 -0.389593 2.411596 5.963250 2.049643 -5.138400 2.461100 -0.683900 17.383657 0.147724 2.826960 -58.497729 -34.896956 8.635452 141.175054 -50.072620 -104.224048 0.070622 -2.202090 -34.949720 36.728087 9.120729 8.647600 -7.125000 0.000000 0.000000 9.993400 43.896900 -0.274900 -16.775665 -2.237799 3.647672 39.200476 33.574079 16.868605 -108.157449 60.164465 -82.813894 -0.746417 2.077946 -46.284023 -21.467622 -0.984493 1.276100 7.125000 0.000000 0.000000 3.368700 -33.306000 0.967000 
-7.284623 17.572931 0.624133 -78.311781 85.169417 -73.701388 7.054980 1.626530 -0.423139 -17.969152 0.000739 -3.411139 7.217171 15.897383 52.493438 -0.111725 6.710214 20.522155 1.009600 -6.393300 -17.930000 -8.933460 -0.173785 -2.973739 37.818201 -2.879313 -1.945942 -8.077478 -17.594464 53.510674 4.441609 -26.164893 10.520192 -2.770800 10.314500 -30.001300 2.467527 -0.061924 20.949433 2.526705 1.399754 2.075854 -2.790411 0.572814 3.295620 6.694891 5.425956 0.073724 3.073800 5.686435 3.561026 -4.935900 2.514300 -0.165700 17.249329 0.430544 2.802434 -56.536661 -31.440171 8.204654 144.125718 -48.034944 -106.021744 0.050845 -2.079731 -33.894160 36.235466 10.622529 9.469000 -7.125000 0.000000 0.000000 9.515500 45.483300 0.114600 -16.667536 -2.363632 3.199956 36.150048 27.594102 18.894663 -109.234430 60.284114 -83.559788 -0.781471 2.062565 -47.934427 -21.347150 -1.962714 1.661700 7.125000 0.000000 0.000000 3.512100 -34.332400 0.920900 
-6.535226 18.028205 0.662667 -77.036535 85.955730 -72.830411 7.067646 1.646060 -0.398889 -18.826673 -0.118412 -2.648947 7.370775 15.943422 52.468946 -0.423147 9.510578 22.049256 0.334600 -3.717300 -10.282700 -8.974662 -0.111027 -2.870735 37.481537 -0.546519 -1.515033 -8.514747 -17.859375 54.866707 4.380084 -26.464599 11.515020 -2.853600 10.454300 -30.460700 1.645174 -0.043239 19.778269 2.409606 1.098707 1.794564 -2.787074 0.446878 2.505307 6.872372 5.243009 2.030838 3.479703 5.417176 3.845014 -4.860200 2.444700 -0.523100 17.084801 0.505598 2.703140 -55.309476 -26.217348 8.565092 147.885610 -45.209619 -108.197220 -0.041068 -1.874452 -32.292052 36.775249 11.193799 9.880100 -7.125000 0.000000 0.000000 9.971200 45.980800 0.243800 -16.673115 -2.502775 2.632123 35.328779 20.621701 21.092432 -111.106999 60.441501 -84.821401 -0.778919 1.986755 -47.424665 -19.594281 -2.761526 1.784900 7.125000 0.000000 0.000000 5.077600 -35.034600 1.246700 
-5.826778 18.453688 0.691999 -82.953312 85.735142 -78.007252 7.191186 1.539320 -0.512600 -18.908565 -1.451295 -3.407695 7.792679 16.340235 53.660350 -1.548260 12.886748 18.293993 0.071100 -1.720000 -4.732500 -9.066934 0.012484 -2.666391 38.105702 2.135146 -4.160535 -9.352228 -18.661458 57.819489 4.390707 -26.444306 11.266707 -2.975000 10.654500 -31.123300 2.331526 -0.280032 18.065761 2.350399 0.790130 1.658796 -3.295283 0.368266 2.928334 6.420510 5.162038 0.980495 4.200937 5.307244 4.923606 -4.364600 2.522000 0.172000 16.898784 0.826959 2.468426 -54.350708 -20.650909 7.534953 151.976344 -41.854360 -110.387801 -0.195721 -1.579455 -30.065101 38.828877 10.603053 9.875900 -7.125000 0.000000 0.000000 11.814500 45.183800 0.054400 -16.653483 -2.624911 1.876122 34.099145 13.676269 22.528982 -111.512028 60.892329 -85.063960 -0.795938 1.983611 -47.375362 -19.068161 -3.932250 2.157200 7.125000 0.000000 0.000000 5.645800 -36.247400 1.219800 
-5.159510 18.870429 0.724321 -89.265533 86.217968 -84.308362 7.340458 1.339406 -0.668287 -19.805119 -2.882133 -4.211381 8.274136 16.850961 55.204156 -2.949900 16.872754 13.474849 0.088100 -1.914300 -5.268900 -9.117280 0.076936 -2.496202 37.534934 3.895462 -7.031598 -10.292377 -19.416843 60.916474 5.184343 -28.485675 8.887673 -1.985000 8.834800 -25.279900 2.302995 -0.270884 17.633755 2.314792 0.777383 1.721317 -3.400822 0.419017 3.005714 6.151793 4.841051 1.170561 4.151661 4.900738 4.869641 -4.298000 2.315600 0.092900 16.753736 0.932051 2.271823 -54.013255 -15.319020 7.104620 154.844819 -39.374610 -111.831937 -0.346815 -1.224268 -27.586757 41.828094 7.170906 7.580100 -7.125000 0.000000 0.000000 14.038800 40.784800 -1.492600 -16.657445 -2.788371 1.117551 33.907142 6.323609 23.303315 -112.697169 61.362193 -85.680401 -0.721598 1.980596 -48.443419 -20.214478 -3.489795 2.104700 7.125000 0.000000 0.000000 4.568000 -35.768300 1.039100 
-4.551825 19.202165 0.756644 -86.854946 88.622407 -83.098425 7.472586 1.112835 -0.799869 -22.928226 -3.615741 -3.995700 8.483452 17.238201 56.125594 -3.769804 19.402589 10.697775 0.001400 -0.240800 -0.661700 -9.087046 0.090299 -2.431533 34.482938 4.813563 -9.417594 -11.129094 -19.867491 63.379146 5.805944 -30.343592 7.669633 -3.012900 10.716000 -31.327800 -0.177261 -0.114360 19.308618 2.146001 0.670229 1.978662 -2.875357 0.374057 2.941738 5.531507 4.830037 0.408677 4.488639 4.841338 4.838814 -4.407500 2.283500 0.377000 16.525718 1.034171 1.949530 -55.048392 -9.734043 5.059210 156.832362 -37.672261 -112.768088 -0.445031 -0.972407 -24.497971 44.776329 6.688417 7.648300 -7.125000 0.000000 0.000000 16.493000 40.161300 -2.030900 -16.727383 -2.905344 0.557117 34.729583 0.761372 22.524854 -111.081059 62.224691 -84.612714 -0.830582 1.959609 -49.551641 -18.282790 -5.507430 2.598800 7.125000 0.000000 0.000000 6.465300 -37.812600 1.149700 
-3.946211 19.509055 0.785285 -77.789901 88.523275 -75.777385 7.442258 1.155537 -0.819457 -22.922780 -3.450760 -3.570777 8.391962 17.185223 56.160647 -3.625043 18.068980 9.008874 0.087700 -1.909600 -5.256000 -9.148979 0.132165 -2.462343 34.014902 4.920562 -10.683886 -11.249332 -20.010557 63.931410 5.885435 -29.793987 5.850164 -2.052400 8.974400 -25.715300 -0.123109 -0.093490 21.837091 2.158906 0.815256 2.207029 -2.891200 0.533347 2.116290 5.391766 4.789790 0.863150 4.363168 4.791840 4.572581 -4.373000 2.236200 0.268600 16.445159 1.138283 1.573672 -56.190359 -2.982257 4.132725 158.159355 -36.655559 -113.371137 -0.517376 -0.703548 -23.046437 48.456489 3.582537 4.830600 -7.125000 0.000000 0.000000 18.773200 35.792200 -4.445900 -16.738376 -2.980384 0.137050 36.437644 -4.483860 22.645334 -108.057959 63.158806 -82.458782 -0.811547 2.000515 -51.115612 -19.644141 -4.769977 2.535000 7.125000 0.000000 0.000000 5.141300 -37.121700 0.999800 
-3.353825 19.748770 0.806680 -48.940713 88.815128 -48.482594 7.165444 1.113645 -0.819736 -23.266345 -2.889562 -3.490301 7.916953 16.967553 55.119103 -3.039482 15.257025 8.086617 0.188000 -2.792700 -7.702100 -9.334666 0.123094 -2.512052 32.940733 5.176517 -11.730113 -10.736739 -19.808977 62.439227 5.799276 -29.248527 5.270528 -1.649100 8.093500 -22.998400 -0.854273 0.110598 24.192708 2.176659 1.011176 2.465916 -2.633739 0.662245 1.570649 5.082272 4.837313 0.881318 4.515376 4.851437 4.789340 -4.184300 2.300900 0.484700 16.376856 1.342917 1.206585 -58.416401 3.191902 3.084225 157.954537 -37.374177 -113.202101 -0.563862 -0.508484 -20.989001 52.108177 0.639182 1.393600 -7.125000 0.000000 0.000000 20.685600 31.254600 -7.383100 -16.717606 -3.088779 -0.107730 38.292411 -8.393913 22.730565 -101.878772 63.975016 -78.228938 -0.757723 2.105366 -49.966629 -21.553782 -3.147737 2.162500 7.125000 0.000000 0.000000 3.327000 -35.575100 0.771600 
-2.749476 19.931432 0.818068 -36.575715 88.654260 -36.603987 6.960468 0.955091 -0.872696 -23.154202 -2.513142 -4.629794 7.215605 16.676696 53.399193 -2.314608 11.875972 7.015044 0.481800 -4.451300 -12.350000 -9.359465 0.105146 -2.451730 32.064740 5.782586 -13.313880 -9.516691 -19.318422 58.880695 5.277243 -27.148131 4.910281 -2.594900 10.008500 -29.004200 -0.883682 0.234643 25.392722 2.227440 1.218896 2.619997 -2.595930 0.797034 1.173380 5.306650 4.754430 1.178285 4.134613 4.767192 4.686747 -4.455300 2.245900 0.446300 16.413328 1.607631 0.874538 -60.697834 9.481948 3.086982 157.231213 -38.690767 -112.743677 -0.614461 -0.444568 -20.229398 53.882812 0.235159 0.793700 -7.125000 0.000000 0.000000 21.871700 30.460300 -8.317700 -16.650241 -3.297431 -0.183233 39.850100 -11.671880 24.051140 -93.926335 63.990514 -72.752434 -0.744888 2.297602 -49.110020 -23.777438 -2.276826 2.090900 7.125000 0.000000 0.000000 1.325600 -34.919600 0.328200 
-2.131670 20.072915 0.830261 -39.867225 88.107397 -39.807326 6.847104 0.851127 -0.914919 -22.644225 -2.334812 -6.533192 6.352883 16.300324 50.986966 -1.757641 9.384037 6.241448 0.782800 -5.648500 -15.767800 -9.256347 0.232721 -2.389285 31.695757 6.947171 -14.693095 -7.915151 -18.530486 54.035213 4.671441 -24.797358 4.797344 -2.985100 10.671000 -31.178100 -0.428588 0.308134 25.941466 2.289699 1.466324 2.740867 -2.565839 0.969524 1.033002 5.061366 4.884572 1.410267 4.316240 4.905422 4.488332 -4.278400 2.298300 0.318500 16.470480 2.020712 0.537269 -62.904457 16.142593 3.954475 155.795643 -40.802923 -111.843420 -0.667579 -0.481929 -19.877108 53.122853 1.520109 2.542300 -7.125000 0.000000 0.000000 21.812700 32.509500 -7.127400 -16.602558 -3.597860 -0.061967 40.938867 -13.986755 26.816600 -83.821433 62.542836 -65.369623 -0.711726 2.482806 -47.936421 -23.137342 -1.080574 1.556600 7.125000 0.000000 0.000000 1.703900 -33.726700 0.471200 
